<svg width="34" height="34" viewBox="0 0 34 34" fill="none" xmlns="http://www.w3.org/2000/svg">
<g clip-path="url(#clip0_244_336)">
<path d="M19.92 10.5825L16.9167 13.5858L13.8992 10.5825L11.9017 12.58L14.9192 15.5833L11.9158 18.5867L13.9133 20.5842L16.9167 17.5808L19.92 20.5842L21.9175 18.5867L18.9142 15.5833L21.9175 12.58L19.92 10.5825ZM21.875 1.41667L20.4583 0H13.375L11.9583 1.41667H7V4.25H26.8333V1.41667H21.875ZM8.41667 22.6667C8.41667 24.225 9.69167 25.5 11.25 25.5H22.5833C24.1417 25.5 25.4167 24.225 25.4167 22.6667V5.66667H8.41667V22.6667ZM11.25 8.5H22.5833V22.6667H11.25V8.5Z" fill="#FF97E0" fill-opacity="0.24"/>
</g>
<defs>
<clipPath id="clip0_244_336">
<rect width="34" height="34" fill="white"/>
</clipPath>
</defs>
</svg>
